<?xml version="1.0" encoding="utf-8"?>
<!-- Generator: Adobe Illustrator 29.8.5, SVG Export Plug-In . SVG Version: 9.03 Build 0)  -->
<svg version="1.0" id="Capa_1" xmlns="http://www.w3.org/2000/svg" xmlns:xlink="http://www.w3.org/1999/xlink" x="0px" y="0px"
	 viewBox="0 0 512 512" style="enable-background:new 0 0 512 512;" xml:space="preserve">
<style type="text/css">
	.st0{fill:#FFFFFF;}
</style>
<g transform="translate(0.000000,512.000000) scale(0.100000,-0.100000)">
	<path class="st0" d="M340,4344c-30-8-59-19-65-25c-11-11,2161-2190,2207-2215c35-18,121-18,156,0c46,25,2218,2204,2207,2215
		c-6,6-37,17-70,25c-53,14-298,16-2220,15C684,4359,388,4357,340,4344z"/>
	<path class="st0" d="M23,4048C6,3998,5,3925,5,2560s1-1438,18-1487c10-29,22-53,25-53c4,0,354,347,777,770l770,770l-770,770
		c-423,424-773,770-777,770C45,4100,33,4076,23,4048z"/>
	<path class="st0" d="M4295,3330l-770-770l770-770c423-423,773-770,777-770c3,0,15,24,25,53c17,49,18,122,18,1487s-1,1438-18,1488
		c-10,28-22,52-25,52C5068,4100,4718,3754,4295,3330z"/>
	<path class="st0" d="M1030,1575c-495-495-761-768-755-774s37-17,70-25c53-14,299-16,2215-16s2162,2,2215,16c33,8,64,19,70,25
		s-260,279-757,776l-767,767l-238-235c-218-216-245-239-317-275l-80-39h-126h-126l-80,39c-72,36-100,60-315,273
		c-129,128-237,233-240,233C1797,2340,1451,1996,1030,1575z"/>
</g>
</svg>
