<?xml version="1.0" encoding="utf-8"?>
<!-- Generator: Adobe Illustrator 29.8.5, SVG Export Plug-In . SVG Version: 9.03 Build 0)  -->
<svg version="1.0" id="Capa_1" xmlns="http://www.w3.org/2000/svg" xmlns:xlink="http://www.w3.org/1999/xlink" x="0px" y="0px"
	 viewBox="0 0 512 512" style="enable-background:new 0 0 512 512;" xml:space="preserve">
<style type="text/css">
	.st0{fill:#FFFFFF;}
</style>
<g transform="translate(0.000000,512.000000) scale(0.100000,-0.100000)">
	<path class="st0" d="M2345,5033c-828-72-1558-547-1962-1278C56,3164-13,2438,196,1778c121-380,324-710,619-1004
		c292-290,636-492,1035-608c115-33,298-75,328-76c9,0,12,185,12,890v890h-280h-280v350v350h279h279l5,353c5,383,12,446,71,602
		c103,272,327,453,648,522c111,24,424,24,628-1c80-9,155-20,168-23l22-5v-303v-303l-272-4c-245-4-280-7-338-26
		c-109-36-178-111-214-231c-13-44-16-105-16-318v-263h365c362,0,365,0,365-21c0-11-22-164-50-339c-27-175-50-324-50-329
		c0-8-79-11-245-11h-245V980c0-734,2-890,13-890c8,0,70,15,139,34c395,109,766,321,1067,611c424,408,675,903,758,1495
		c25,185,23,500-6,688c-82,541-318,1009-701,1393c-410,411-896,647-1470,713C2709,5038,2457,5043,2345,5033z"/>
</g>
</svg>
