<?xml version="1.0" encoding="utf-8"?>
<!-- Generator: Adobe Illustrator 29.8.5, SVG Export Plug-In . SVG Version: 9.03 Build 0)  -->
<svg version="1.0" id="Capa_1" xmlns="http://www.w3.org/2000/svg" xmlns:xlink="http://www.w3.org/1999/xlink" x="0px" y="0px"
	 viewBox="0 0 512 512" style="enable-background:new 0 0 512 512;" xml:space="preserve">
<style type="text/css">
	.st0{fill:#FFAE00;}
</style>
<g transform="translate(0.000000,512.000000) scale(0.100000,-0.100000)">
	<path class="st0" d="M1296,4674c-438-87-768-419-851-857c-23-119-23-2395,0-2514c84-441,417-774,858-858c119-23,2395-23,2515,0
		c440,84,773,417,857,858c23,119,23,2395,0,2514c-73,386-349,703-714,822c-159,52-135,51-1410,50C1592,4688,1352,4686,1296,4674z
		 M3785,3901c82-37,125-103,125-191c0-124-85-211-206-212c-184-2-282,211-161,349C3604,3916,3704,3939,3785,3901z M2670,3620
		c172-20,344-82,487-177c76-50,194-162,255-243c64-84,152-263,178-365c66-257,42-502-74-740c-63-129-125-214-227-310
		c-317-300-784-375-1176-190c-121,57-192,105-282,190c-102,96-163,181-227,310c-205,418-118,908,218,1231c113,108,207,169,354,227
		C2337,3617,2503,3639,2670,3620z"/>
	<path class="st0" d="M2420,3184c-111-23-224-86-311-173c-251-252-252-650,0-901c253-252,651-253,901-1c253,254,253,648,0,902
		C2855,3167,2636,3231,2420,3184z"/>
</g>
</svg>
