<?xml version="1.0" encoding="utf-8"?>
<!-- Generator: Adobe Illustrator 29.8.5, SVG Export Plug-In . SVG Version: 9.03 Build 0)  -->
<svg version="1.0" id="Capa_1" xmlns="http://www.w3.org/2000/svg" xmlns:xlink="http://www.w3.org/1999/xlink" x="0px" y="0px"
	 viewBox="0 0 512 512" style="enable-background:new 0 0 512 512;" xml:space="preserve">
<style type="text/css">
	.st0{fill:#FFFFFF;}
</style>
<g transform="translate(0.000000,512.000000) scale(0.100000,-0.100000)">
	<path class="st0" d="M2315,5109c-615-63-1167-332-1600-781c-383-397-615-881-697-1453c-17-118-17-512,0-630
		c71-496,264-943,565-1308c234-283,518-508,842-667c197-97,316-142,510-190c277-70,561-94,825-71c116,10,260,29,267,35
		c4,3-165,507-171,514c-3,2-19-7-36-22c-17-14-36-26-41-26s-9,68-9,158v157l-195,585c-108,322-202,608-210,635c-13,48-14,43-14-117
		c-1-196,18-173-161-183c-63-3-173-13-245-22c-71-9-143-17-160-17l-30-1l-17,105c-15,98-41,333-52,478l-4,62h334h334l1-37
		c1-37,1-36,13,14c53,217,247,396,472,437l79,14l-72,1l-73,1v290v290l23,4c12,3,76,8,143,11s188,15,270,25c82,11,152,16,155,12
		c14-15,57-353,73-569l4-63l-241-1c-236-1-240-1-167-14c42-8,343-104,670-215l595-200h194h193l-6-63l-7-62l193-64
		c106-35,198-66,204-68c21-8,54,280,54,472c0,912-504,1772-1304,2224c-275,156-579,259-901,307C2793,5114,2438,5122,2315,5109z
		 M2350,4199v-411l-92,7c-51,4-151,13-221,21c-71,8-138,14-149,14c-17,0-20,5-15,29c20,101,157,389,247,521c58,84,197,230,219,230
		C2347,4610,2350,4493,2350,4199z M2867,4538c86-84,173-209,245-352c53-105,138-314,138-339c0-10-26-17-102-26c-99-11-324-31-360-31
		c-17,0-18,26-18,410c0,293,3,410,11,410C2787,4610,2826,4577,2867,4538z M1635,4398c-59-113-130-283-166-395c-16-51-28-73-39-73
		c-44,0-380,115-380,130c0,8,105,103,195,177c75,61,239,165,340,217c50,25,93,46,97,46C1685,4500,1664,4454,1635,4398z M3535,4454
		c131-67,326-200,438-299c53-47,97-90,97-94c0-16-335-131-380-131c-11,0-23,22-39,73c-36,112-107,282-166,395c-29,56-50,102-46,102
		S3486,4479,3535,4454z M891,3661c107-45,386-141,412-141c34-1,37-15,22-95c-23-119-53-375-61-517l-7-128H847H438l7,58
		c21,175,86,406,165,582c45,99,149,290,159,290C772,3710,827,3688,891,3661z M4392,3647c100-170,187-377,232-548
		c24-93,56-266,56-301c0-17-20-18-410-18h-410v53c0,115-51,552-76,651c-5,22-2,26,38,36c92,24,347,113,428,150c47,21,90,38,95,39
		C4351,3710,4372,3682,4392,3647z M1955,3395c61-8,164-17,230-20s130-8,143-11l22-4v-290v-290h-334h-334l5,68c12,179,53,511,69,561
		c3,10,15,12,47,7C1826,3412,1895,3402,1955,3395z M1268,2173c11-159,49-464,67-535c6-25,4-28-37-38c-107-29-274-86-397-137
		c-107-45-135-53-142-42c-92,140-194,367-245,542c-33,115-74,316-74,364v23h408h408L1268,2173z M2350,920c0-293-3-410-11-410
		c-22,0-161,146-218,229c-32,47-81,131-110,187c-52,105-141,322-141,347c0,10,29,17,118,27c124,14,262,26,325,29l37,1V920z
		 M1469,1118c36-113,107-283,166-395c29-57,51-103,48-103s-47,21-97,46c-101,51-265,155-341,217c-90,73-195,169-195,177
		c0,15,327,128,376,129C1442,1190,1450,1177,1469,1118z"/>
	<path class="st0" d="M2884,2339c-43-12-100-77-108-123c-6-32,41-181,344-1091C3453,125,3473,69,3505,41c77-67,196-46,241,42
		c9,17,93,229,186,472c93,242,175,445,181,452c7,6,210,88,452,181c243,93,455,177,472,186c65,33,97,117,74,189c-27,79,1,68-1120,441
		c-573,190-1049,346-1058,345C2923,2349,2901,2344,2884,2339z"/>
</g>
</svg>
