<?xml version="1.0" encoding="utf-8"?>
<!-- Generator: Adobe Illustrator 29.8.5, SVG Export Plug-In . SVG Version: 9.03 Build 0)  -->
<svg version="1.0" id="Capa_1" xmlns="http://www.w3.org/2000/svg" xmlns:xlink="http://www.w3.org/1999/xlink" x="0px" y="0px"
	 viewBox="0 0 512 512" style="enable-background:new 0 0 512 512;" xml:space="preserve">
<style type="text/css">
	.st0{fill:#FFAE00;}
</style>
<g transform="translate(0.000000,512.000000) scale(0.100000,-0.100000)">
	<path class="st0" d="M412,5100c-97-26-173-70-248-144c-75-76-119-151-144-252C0,4628,0,4589,0,2560S0,492,20,416
		c25-101,69-176,144-252C240,89,315,45,416,20C492,0,531,0,2560,0s2068,0,2144,20c101,25,176,69,252,144c75,76,119,151,144,252
		c20,76,20,115,20,2144s0,2068-20,2144c-26,103-69,177-149,256c-79,77-142,114-247,140c-76,20-117,20-2148,19
		C546,5119,483,5118,412,5100z M2302,3693c244-356,448-648,454-649c5-1,252,281,549,627s549,639,561,650c19,18,33,19,169,17l148-3
		l-628-730c-345-401-635-739-645-750c-18-20-5-40,686-1045c387-564,704-1026,704-1027c0-2-233-3-518-3h-518l-473,690
		c-261,379-477,688-480,685c-4-2-272-312-596-689l-590-686H972H818l40,48c22,26,328,382,680,790l640,744l-586,851
		c-321,469-627,914-679,990l-94,137h519h520L2302,3693z"/>
	<path class="st0" d="M1252,4088c44-67,2142-3065,2152-3076c9-9,67-12,244-10l231,3L2796,2555L1712,4105l-237,3l-238,2L1252,4088z"
		/>
</g>
</svg>
