<?xml version="1.0" encoding="utf-8"?>
<!-- Generator: Adobe Illustrator 29.8.5, SVG Export Plug-In . SVG Version: 9.03 Build 0)  -->
<svg version="1.0" id="Capa_1" xmlns="http://www.w3.org/2000/svg" xmlns:xlink="http://www.w3.org/1999/xlink" x="0px" y="0px"
	 viewBox="0 0 512 512" style="enable-background:new 0 0 512 512;" xml:space="preserve">
<style type="text/css">
	.st0{fill:#FFAE00;}
</style>
<g transform="translate(0.000000,512.000000) scale(0.100000,-0.100000)">
	<path class="st0" d="M2055,4279c-809-15-1284-52-1433-112c-135-55-248-158-315-285c-87-165-133-527-144-1132c-8-483,18-922,73-1200
		c59-303,222-476,503-535c256-54,935-86,1826-85c910,0,1558,30,1830,85c89,18,215,81,281,139c69,61,139,166,168,252
		c80,236,129,923,107,1493c-30,774-93,1017-306,1178c-98,74-166,101-318,128c-188,32-640,60-1117,70C2652,4286,2452,4287,2055,4279z
		 M2700,2967c337-194,612-357,612-362c-1-8-1216-715-1229-715c-1,0-3,322-3,715s2,715,4,715S2363,3161,2700,2967z"/>
</g>
</svg>
